<?xml version="1.0" standalone="no"?>
<!DOCTYPE svg PUBLIC "-//W3C//DTD SVG 20010904//EN"
 "http://www.w3.org/TR/2001/REC-SVG-20010904/DTD/svg10.dtd">
<svg version="1.0" xmlns="http://www.w3.org/2000/svg"
 width="180.000000pt" height="180.000000pt" viewBox="0 0 180.000000 180.000000"
 preserveAspectRatio="xMidYMid meet">
<metadata>
Created by potrace 1.14, written by Peter Selinger 2001-2017
</metadata>
<g transform="translate(0.000000,180.000000) scale(0.100000,-0.100000)"
fill="#000000" stroke="none">
<path d="M1178 1773 c-9 -10 -17 -24 -20 -32 -3 -12 -30 -15 -129 -17 -137 -2
-166 -6 -254 -37 -157 -54 -261 -141 -330 -274 -38 -75 -48 -178 -18 -187 20
-6 96 16 119 35 18 15 30 5 38 -31 11 -58 96 -71 223 -35 l62 17 58 -47 c32
-26 68 -52 81 -58 24 -11 27 -25 13 -77 -6 -19 -12 -52 -15 -72 -3 -21 -10
-57 -15 -80 -6 -24 -12 -56 -15 -73 -3 -16 -8 -41 -11 -55 -3 -14 -8 -38 -10
-55 -11 -61 -9 -60 -92 -61 -206 -1 -346 -40 -453 -124 -14 -10 -37 -21 -52
-24 -49 -8 -201 -57 -227 -73 -75 -46 -104 -69 -118 -96 -44 -87 45 -170 247
-230 97 -29 139 -38 237 -53 26 -3 57 -8 68 -10 108 -21 520 -21 665 0 14 2
49 7 79 11 208 27 401 100 462 174 33 40 35 57 15 105 -12 30 -92 96 -116 96
-5 0 -32 20 -60 45 -102 91 -260 147 -480 171 -30 3 -55 7 -56 7 -2 5 84 428
88 432 3 3 41 14 86 26 l82 20 47 -39 c115 -96 188 -111 232 -50 13 19 16 17
61 -32 53 -58 71 -61 104 -17 30 41 29 216 -2 297 -66 170 -232 328 -416 396
-68 25 -74 30 -72 53 5 40 -21 71 -59 71 -18 0 -39 -8 -47 -17z"/>
</g>
</svg>
